# xmcd CD database file
#
# Track frame offsets:
#	150
#	22485
#	46160
#	63112
#	83875
#	112712
#	131617
#	154875
#	173022
#
# Disc length: 2567 seconds
#
# Revision: 0
# Processed by: cddbd v1.5.1PL0 Copyright (c) Steve Scherf et al.
# Submitted via: CDex 1.51
#
DISCID=6b0a0509
DTITLE=宮原学 - SCRAMBLE
DYEAR=1988
DGENRE=JPop
TTITLE0=GET READY
TTITLE1=SCRAMBLE
TTITLE2=STRAY CATS
TTITLE3=FOR YOUR LOVE
TTITLE4=MEN AND WOMAN
TTITLE5=MONEY HONEY
TTITLE6=ONE NIGHT GAME
TTITLE7=SHE SAID
TTITLE8=WITHOUT YOU
EXTD=YEAR: 1988
EXTT0=
EXTT1=
EXTT2=
EXTT3=
EXTT4=
EXTT5=
EXTT6=
EXTT7=
EXTT8=
PLAYORDER=
